<svg width="1080" height="65" viewBox="0 0 1080 65" fill="none" xmlns="http://www.w3.org/2000/svg">
<path fill-rule="evenodd" clip-rule="evenodd" d="M0 51.4613L22.5 44.3139C45 37.1665 90 22.8717 135 22.8717C180 22.8717 225 37.1665 270 37.1665C315 37.1665 360 22.8717 405 17.1538C450 11.4358 495 14.2948 540 18.5832C585 22.8717 630 28.5896 675 40.0254C720 51.4613 765 68.615 810 64.3266C855 60.0382 900 34.3075 945 25.7306C990 17.1538 1035 25.7306 1057.5 30.0191L1080 34.3075V0H1057.5C1035 0 990 0 945 0C900 0 855 0 810 0C765 0 720 0 675 0C630 0 585 0 540 0C495 0 450 0 405 0C360 0 315 0 270 0C225 0 180 0 135 0C90 0 45 0 22.5 0H0V51.4613Z" fill="#FFFDF5"/>
</svg>
