<svg width="1080" height="75" viewBox="0 0 1080 75" fill="none" xmlns="http://www.w3.org/2000/svg">
<path fill-rule="evenodd" clip-rule="evenodd" d="M0 21.3388L22.5 15.3765C45 9.41413 90 -2.51057 135 0.470604C180 3.45178 225 21.3388 270 30.2824C315 39.2259 360 39.2259 405 33.2635C450 27.3012 495 15.3765 540 12.3953C585 9.41413 630 15.3765 675 22.8294C720 30.2824 765 39.2259 810 34.7541C855 30.2824 900 12.3953 945 9.41413C990 6.43296 1035 18.3577 1057.5 24.32L1080 30.2824V75H1057.5C1035 75 990 75 945 75C900 75 855 75 810 75C765 75 720 75 675 75C630 75 585 75 540 75C495 75 450 75 405 75C360 75 315 75 270 75C225 75 180 75 135 75C90 75 45 75 22.5 75H0V21.3388Z" fill="#FFF8DE"/>
</svg>
