<svg width="1080" height="75" viewBox="0 0 1080 75" fill="none" xmlns="http://www.w3.org/2000/svg">
<path fill-rule="evenodd" clip-rule="evenodd" d="M0 26.4429L26.1 22.3965C51.3 18.3501 102.6 10.2572 153.9 8.234C206.1 6.21079 257.4 10.2572 308.7 20.3733C360 30.4893 411.3 46.675 462.6 52.7447C513.9 58.8143 566.1 54.7679 617.4 40.6054C668.7 26.4429 720 2.16436 771.3 0.141148C822.6 -1.88206 873.9 18.3501 926.1 28.4661C977.4 38.5822 1028.7 38.5822 1053.9 38.5822H1080V75H1053.9C1028.7 75 977.4 75 926.1 75C873.9 75 822.6 75 771.3 75C720 75 668.7 75 617.4 75C566.1 75 513.9 75 462.6 75C411.3 75 360 75 308.7 75C257.4 75 206.1 75 153.9 75C102.6 75 51.3 75 26.1 75H0V26.4429Z" fill="#ED3A5F"/>
</svg>
