<svg width="1080" height="93" viewBox="0 0 1080 93" fill="none" xmlns="http://www.w3.org/2000/svg">
<path fill-rule="evenodd" clip-rule="evenodd" d="M0 76.3441L26.1 81.4337C51.3 86.5233 102.6 96.7025 153.9 91.6129C206.1 86.5233 257.4 66.1648 308.7 53.4408C360 40.7168 411.3 35.6272 462.6 45.8064C513.9 55.9856 566.1 81.4337 617.4 83.9785C668.7 86.5233 720 66.1648 771.3 63.62C822.6 61.0752 873.9 76.3441 926.1 73.7993C977.4 71.2545 1028.7 50.896 1053.9 40.7168L1080 30.5376V0H1053.9C1028.7 0 977.4 0 926.1 0C873.9 0 822.6 0 771.3 0C720 0 668.7 0 617.4 0C566.1 0 513.9 0 462.6 0C411.3 0 360 0 308.7 0C257.4 0 206.1 0 153.9 0C102.6 0 51.3 0 26.1 0H0V76.3441Z" fill="#FFF8DE"/>
</svg>
